<?xml version="1.0" encoding="UTF-8"?>
<svg version="1.1" xmlns="http://www.w3.org/2000/svg" width="640" height="640">

<path d="M0 0 C3.92389479 0.54498539 5.89584594 1.62623513 9 4 C10.62021637 4.69437844 12.24156169 5.38636778 13.87109375 6.05859375 C20.82635 9.13422083 26.75322681 12.44459309 32 18 C34.66533035 19.319018 34.66533035 19.319018 37 20 C37 20.66 37 21.32 37 22 C37.7425 22.12375 38.485 22.2475 39.25 22.375 C41.80141485 22.95486701 43.7267573 23.73708739 46 25 C46 25.66 46 26.32 46 27 C46.99 27 47.98 27 49 27 C49 27.66 49 28.32 49 29 C50.52560547 29.12568359 50.52560547 29.12568359 52.08203125 29.25390625 C56.42769051 30.08144455 59.00333437 31.5264425 62.6875 33.9375 C67.70583587 37.21356191 67.70583587 37.21356191 73 40 C73 41.32 73 42.64 73 44 C71.60587891 44.68835938 71.60587891 44.68835938 70.18359375 45.390625 C59.33991183 50.74362289 59.33991183 50.74362289 49 57 C48.01 57 47.02 57 46 57 C46 57.66 46 58.32 46 59 C37.06310463 63.76782259 37.06310463 63.76782259 33 64 C31.515 63.01 31.515 63.01 30 62 C30 61.34 30 60.68 30 60 C29.29359375 59.72671875 28.5871875 59.4534375 27.859375 59.171875 C20.05429569 55.973072 12.71879174 52.07981313 5.83984375 47.19921875 C3.9057104 45.82795417 3.9057104 45.82795417 1 45 C1 59.52 1 74.04 1 89 C2.98 88.01 4.96 87.02 7 86 C7.99 86 8.98 86 10 86 C10 85.34 10 84.68 10 84 C10.90492188 83.52820313 10.90492188 83.52820313 11.828125 83.046875 C16.85331568 80.41246651 16.85331568 80.41246651 21.125 76.75 C23.82715674 74.22798704 26.40796795 74.27631016 30 74 C30 73.34 30 72.68 30 72 C30.77923828 71.63648438 30.77923828 71.63648438 31.57421875 71.265625 C34.95422327 69.64122356 37.82981699 68.13924064 40.75 65.75 C43 64 43 64 47 64 C47 63.34 47 62.68 47 62 C51.77411105 59.19351353 56.58149636 56.71835277 61.625 54.4375 C69.25408728 51.18033914 69.25408728 51.18033914 75.75 46.1875 C81.18519559 40.90328206 86.70817944 37.52172383 94.25 36.421875 C94.8275 36.28265625 95.405 36.1434375 96 36 C96.33 35.34 96.66 34.68 97 34 C98.63978318 32.95650161 100.31464976 31.96817992 102 31 C103.29416531 30.19148582 104.58564989 29.37867114 105.875 28.5625 C116.39488636 22 116.39488636 22 120 22 C120 21.34 120 20.68 120 20 C120.67546875 19.68546875 121.3509375 19.3709375 122.046875 19.046875 C126.78126402 16.77546293 130.33589787 14.79045048 134 11 C136.31808364 9.96514123 138.65175298 8.9644586 141 8 C141.66 7.505 142.32 7.01 143 6.5 C145.76052387 4.4296071 148.83574186 3.34773958 152 2 C152.66 1.34 153.32 0.68 154 0 C158.41296837 0.29419789 161.41298525 1.45133162 165 4 C165.556875 4.66 166.11375 5.32 166.6875 6 C169.78612518 8.67989205 172.91478515 9.26248962 176.85546875 10.19140625 C177.91701172 10.59166016 177.91701172 10.59166016 179 11 C179.33 11.99 179.66 12.98 180 14 C181.65984798 14.68346682 183.32836805 15.34588315 185 16 C186.83387405 17.23464766 188.59371072 18.53864369 190.3515625 19.87890625 C192.12060315 21.19132292 192.12060315 21.19132292 195 22 C195.30163455 33.59564665 195.53240151 45.19035608 195.67355824 56.78913116 C195.74132126 62.17561182 195.83315948 67.55940334 195.98071289 72.94433594 C196.12231156 78.14469125 196.19975856 83.34246688 196.23340416 88.54460144 C196.25736739 90.52565645 196.30417085 92.5065749 196.37449074 94.48652649 C196.88901887 109.57850036 196.88901887 109.57850036 193.75866318 113.59124756 C190.26592652 116.64217784 186.28836965 118.28482998 182 120 C179.98753509 121.08128119 177.98499345 122.1815778 176 123.3125 C175.154375 123.76238281 174.30875 124.21226562 173.4375 124.67578125 C170.9127541 126.04739801 168.46309415 127.52131279 166 129 C165.319375 129.309375 164.63875 129.61875 163.9375 129.9375 C161.82596373 130.96567232 161.82596373 130.96567232 160 133.125 C158 135 158 135 154 135 C154 134.34 154 133.68 154 133 C153.0409375 132.6596875 153.0409375 132.6596875 152.0625 132.3125 C149.42824999 131.18353571 147.09760772 129.93284447 144.625 128.5 C140.78848315 126.32147535 137.28623353 125.00316104 133 124 C133 123.34 133 122.68 133 122 C132.34 122 131.68 122 131 122 C131 121.34 131 120.68 131 120 C130.195625 119.79375 129.39125 119.5875 128.5625 119.375 C124.72784619 117.89495818 121.83439343 115.95628361 118.47265625 113.6328125 C115.96053339 111.97393832 113.40628403 110.54013822 110.75 109.125 C106.36721632 106.77508194 102.06841943 104.3205567 97.8125 101.75 C96.70519531 101.08484375 95.59789062 100.4196875 94.45703125 99.734375 C93.24080078 98.87585938 93.24080078 98.87585938 92 98 C92 97.34 92 96.68 92 96 C90.02 95.505 90.02 95.505 88 95 C87.67 93.68 87.34 92.36 87 91 C89.88268025 88.75791536 92.85589652 86.85421487 96 85 C96.99 84.34 97.98 83.68 99 83 C99.99 83 100.98 83 102 83 C102 82.34 102 81.68 102 81 C103.32 81 104.64 81 106 81 C106 80.34 106 79.68 106 79 C106.75925781 78.59007812 107.51851562 78.18015625 108.30078125 77.7578125 C109.29464844 77.21898437 110.28851563 76.68015625 111.3125 76.125 C112.29863281 75.59132813 113.28476562 75.05765625 114.30078125 74.5078125 C117.09586458 72.99277874 117.09586458 72.99277874 120 71 C122.375 70.625 122.375 70.625 125 71 C125.71027344 71.59554687 126.42054688 72.19109375 127.15234375 72.8046875 C131.19678313 75.92262293 135.65171957 77.51097789 140.38085938 79.35546875 C144.70574477 81.1337007 145.81990111 81.63980222 148 86 C150.97 86.99 153.94 87.98 157 89 C157 74.48 157 59.96 157 45 C155.68 45 154.36 45 153 45 C153 45.66 153 46.32 153 47 C152.31035156 47.36351562 151.62070312 47.72703125 150.91015625 48.1015625 C146.2400505 50.59997298 141.6839671 53.1291694 137.3125 56.125 C134.0243328 58.37724904 130.73193916 60.17198961 127.140625 61.8828125 C124.60400593 63.20666844 122.2652938 64.73993829 119.875 66.3125 C112.72483612 70.94668132 105.11648508 74.55875026 97.4375 78.22265625 C94.07562992 79.84797211 91.61254061 81.38054791 89 84 C88.030625 84.474375 87.06125 84.94875 86.0625 85.4375 C83.01365498 86.76927567 83.01365498 86.76927567 81.29296875 88.85546875 C78.26712463 91.68543199 74.98032501 93.14115665 71.25 94.875 C65.94502507 97.41746276 61.29867298 100.03550949 56.71875 103.76171875 C54.31634705 105.49254087 51.81283474 106.35191323 49.0234375 107.2890625 C46.81392661 108.06537714 44.73594856 108.98643986 42.625 110 C41.97789062 110.309375 41.33078125 110.61875 40.6640625 110.9375 C38.67604029 112.04959955 38.67604029 112.04959955 37 115 C36.01 115 35.02 115 34 115 C34 115.66 34 116.32 34 117 C32.84242188 117.54269531 31.68484375 118.08539063 30.4921875 118.64453125 C28.95310667 119.36714847 27.4140452 120.0898069 25.875 120.8125 C25.11445313 121.16892578 24.35390625 121.52535156 23.5703125 121.89257812 C22.07229797 122.59638668 20.57584423 123.30352789 19.08105469 124.01416016 C17.2506014 124.88128479 15.41111808 125.72929318 13.5703125 126.57421875 C10.74624501 127.88389138 10.74624501 127.88389138 9 131 C5.25867056 132.97459054 2.19058012 133.1949107 -2 133 C-2 132.34 -2 131.68 -2 131 C-4.31 130.67 -6.62 130.34 -9 130 C-9 129.34 -9 128.68 -9 128 C-9.99 128 -10.98 128 -12 128 C-12 127.34 -12 126.68 -12 126 C-12.86625 125.71125 -13.7325 125.4225 -14.625 125.125 C-16.295625 124.568125 -16.295625 124.568125 -18 124 C-19.03125 123.731875 -20.0625 123.46375 -21.125 123.1875 C-24 122 -24 122 -25.75 119.6875 C-28.67368099 115.83248011 -28.67368099 115.83248011 -38 112 C-38 81.97 -38 51.94 -38 21 C-36.35 20.34 -34.7 19.68 -33 19 C-31.31410742 18.05431963 -29.64723922 17.07400783 -28 16.0625 C-27.175 15.55847656 -26.35 15.05445313 -25.5 14.53515625 C-23.76469374 13.46956975 -22.03594391 12.39326121 -20.3125 11.30859375 C-18 10 -18 10 -16 10 C-16 9.34 -16 8.68 -16 8 C-12.61523349 6.13837842 -9.5090057 4.80942093 -5.75 4 C-1.77816768 3.38336794 -1.77816768 3.38336794 0 0 Z " fill="#040404" transform="translate(242,258)"/>
<path d="M0 0 C1.32 0 2.64 0 4 0 C4 14.52 4 29.04 4 44 C-2.66565809 42.88905698 -2.66565809 42.88905698 -5.3125 40.1875 C-8.53952037 37.20925873 -11.67904849 35.59765131 -15.71875 33.9375 C-18.00613356 32.99747936 -20.21946452 31.96794502 -22.4375 30.875 C-23.07558594 30.56304687 -23.71367187 30.25109375 -24.37109375 29.9296875 C-26 29 -26 29 -28 27 C-33.78852238 27.22700088 -37.19836608 29.06566816 -42 32 C-43.65172812 32.70286303 -45.31301918 33.38655243 -47 34 C-47 34.66 -47 35.32 -47 36 C-48.32 36 -49.64 36 -51 36 C-51 36.66 -51 37.32 -51 38 C-51.886875 38.433125 -52.77375 38.86625 -53.6875 39.3125 C-57.63276721 41.3223531 -61.31785435 43.54523623 -65 46 C-65 47.32 -65 48.64 -65 50 C-63.68 50.33 -62.36 50.66 -61 51 C-61 51.66 -61 52.32 -61 53 C-63.64168921 52.64301497 -65.60890736 52.247692 -67.875 50.8125 C-69 49 -69 49 -68.6875 45.8125 C-68.460625 44.884375 -68.23375 43.95625 -68 43 C-69.32 43.99 -70.64 44.98 -72 46 C-72.66 45.67 -73.32 45.34 -74 45 C-70.17216361 41.59135031 -66.48135205 38.52794218 -62 36 C-61.13375 35.38125 -60.2675 34.7625 -59.375 34.125 C-54.79795995 31.24315997 -49.93484519 29.19248122 -45 27 C-39.79518704 24.61290053 -35.15176461 21.8133197 -30.4296875 18.578125 C-26.90224781 16.28699054 -23.20427109 14.35118845 -19.49609375 12.37109375 C-16.54147467 10.74813397 -13.79446307 8.88322511 -11 7 C-2.55619597 2 -2.55619597 2 0 2 C0 1.34 0 0.68 0 0 Z " fill="#F5F5F5" transform="translate(395,303)"/>
<path d="M0 0 C0.66 0 1.32 0 2 0 C2 1.32 2 2.64 2 4 C2.99 4.33 3.98 4.66 5 5 C1.37186104 8.98410731 -1.94765687 11.26375679 -6.875 13.625 C-8.04804688 14.19476563 -9.22109375 14.76453125 -10.4296875 15.3515625 C-12.88452029 16.48497545 -15.32450778 17.55582028 -17.8203125 18.5859375 C-21.02061633 19.78143879 -21.02061633 19.78143879 -23 22 C-23.99 22 -24.98 22 -26 22 C-26 22.66 -26 23.32 -26 24 C-26.680625 24.226875 -27.36125 24.45375 -28.0625 24.6875 C-30.59018195 25.81688981 -32.32347517 26.91462781 -34.5 28.5625 C-37.29393788 30.64114087 -39.45946313 31.67813301 -43 32 C-43 32.66 -43 33.32 -43 34 C-44.2375 34.4125 -45.475 34.825 -46.75 35.25 C-50.36931261 36.59849609 -52.38739339 38.11712374 -55 41 C-59.39285714 44 -59.39285714 44 -63 44 C-63 44.66 -63 45.32 -63 46 C-68.625 49 -68.625 49 -72 49 C-72 34.48 -72 19.96 -72 5 C-67.2635807 5.94728386 -65.87801255 6.54406559 -62.25 9.3125 C-58.29732608 12.19306266 -54.48909836 14.29508153 -49.984375 16.1640625 C-47.48156406 17.21839624 -45.21542 18.42776645 -43 20 C-43 20.66 -43 21.32 -43 22 C-38.58768915 23.0589546 -36.73337267 23.43720294 -32.75 21.0625 C-31.8425 20.381875 -30.935 19.70125 -30 19 C-29.01 19 -28.02 19 -27 19 C-27 18.34 -27 17.68 -27 17 C-26.20335937 16.61328125 -25.40671875 16.2265625 -24.5859375 15.828125 C-17.92617248 12.63697115 -17.92617248 12.63697115 -11.625 8.8125 C-7.87528402 6.22341039 -4.62659314 4 0 4 C0 2.68 0 1.36 0 0 Z " fill="#EDEDED" transform="translate(315,298)"/>
<path d="M0 0 C0.66 0.33 1.32 0.66 2 1 C1.67 1.66 1.34 2.32 1 3 C2.093125 3.0825 3.18625 3.165 4.3125 3.25 C8 4 8 4 9.9375 6.0625 C10.288125 6.701875 10.63875 7.34125 11 8 C10.484375 7.649375 9.96875 7.29875 9.4375 6.9375 C5.91170155 5.58142367 3.65469588 6.13278403 0 7 C-2.44158397 8.19215934 -4.67450305 9.57886297 -7 11 C-8.65172812 11.70286303 -10.31301918 12.38655243 -12 13 C-12 13.66 -12 14.32 -12 15 C-13.32 15 -14.64 15 -16 15 C-16 15.66 -16 16.32 -16 17 C-16.886875 17.433125 -17.77375 17.86625 -18.6875 18.3125 C-22.63276721 20.3223531 -26.31785435 22.54523623 -30 25 C-30 26.32 -30 27.64 -30 29 C-28.68 29.33 -27.36 29.66 -26 30 C-26 30.66 -26 31.32 -26 32 C-28.64168921 31.64301497 -30.60890736 31.247692 -32.875 29.8125 C-34 28 -34 28 -33.6875 24.8125 C-33.460625 23.884375 -33.23375 22.95625 -33 22 C-34.32 22.99 -35.64 23.98 -37 25 C-37.66 24.67 -38.32 24.34 -39 24 C-35.17216361 20.59135031 -31.48135205 17.52794218 -27 15 C-25.700625 14.071875 -25.700625 14.071875 -24.375 13.125 C-20.6292046 10.76653623 -16.80149593 9.02163872 -12.76171875 7.23046875 C-5.89029668 4.3640613 -5.89029668 4.3640613 0 0 Z " fill="#DADADA" transform="translate(360,324)"/>
<path d="M0 0 C0.66 0 1.32 0 2 0 C2 1.32 2 2.64 2 4 C2.99 4.33 3.98 4.66 5 5 C1.37186104 8.98410731 -1.94765687 11.26375679 -6.875 13.625 C-8.04804688 14.19476563 -9.22109375 14.76453125 -10.4296875 15.3515625 C-12.88452029 16.48497545 -15.32450778 17.55582028 -17.8203125 18.5859375 C-21.02061633 19.78143879 -21.02061633 19.78143879 -23 22 C-23.99 22 -24.98 22 -26 22 C-26 22.66 -26 23.32 -26 24 C-26.680625 24.226875 -27.36125 24.45375 -28.0625 24.6875 C-31.17771875 26.07940625 -33.57516624 27.79406703 -36.25390625 29.87890625 C-38.15673796 31.10063489 -39.79277175 31.57014592 -42 32 C-42 31.34 -42 30.68 -42 30 C-40.68 29.34 -39.36 28.68 -38 28 C-38 27.34 -38 26.68 -38 26 C-38.66 25.34 -39.32 24.68 -40 24 C-37.41210938 22.92578125 -37.41210938 22.92578125 -34.82421875 21.8515625 C-32.73466068 20.93193308 -32.73466068 20.93193308 -30 19 C-29.01 19 -28.02 19 -27 19 C-27 18.34 -27 17.68 -27 17 C-26.20335937 16.61328125 -25.40671875 16.2265625 -24.5859375 15.828125 C-17.92617248 12.63697115 -17.92617248 12.63697115 -11.625 8.8125 C-7.87528402 6.22341039 -4.62659314 4 0 4 C0 2.68 0 1.36 0 0 Z " fill="#BDBDBD" transform="translate(315,298)"/>
<path d="M0 0 C1.32 0 2.64 0 4 0 C4 0.66 4 1.32 4 2 C3.34 2 2.68 2 2 2 C2.06114655 13.42212267 2.13820588 24.84401561 2.23571491 36.26588917 C2.28048705 41.56925253 2.319728 46.87253785 2.34643555 52.17602539 C2.37240034 57.29196213 2.41275406 62.40759964 2.46318626 67.52335167 C2.47990127 69.47738619 2.4913866 71.43147253 2.49761391 73.38556862 C2.50720475 76.11779958 2.53520315 78.84925695 2.56762695 81.58129883 C2.56619186 82.39337799 2.56475677 83.20545715 2.5632782 84.04214478 C2.58847105 88.32815283 2.58847105 88.32815283 4.52702332 92.02616882 C5.01310562 92.34753311 5.49918793 92.6688974 6 93 C4.02 92.34 2.04 91.68 0 91 C0 60.97 0 30.94 0 0 Z " fill="#565656" transform="translate(204,279)"/>
<path d="M0 0 C1.32 0 2.64 0 4 0 C4 14.52 4 29.04 4 44 C-2.75 42.875 -2.75 42.875 -5 40 C-3.68 40 -2.36 40 -1 40 C-1 40.66 -1 41.32 -1 42 C-0.01 42 0.98 42 2 42 C1.67 29.13 1.34 16.26 1 3 C-0.32 3.33 -1.64 3.66 -3 4 C-2.67 3.34 -2.34 2.68 -2 2 C-1.34 2 -0.68 2 0 2 C0 1.34 0 0.68 0 0 Z " fill="#939393" transform="translate(395,303)"/>
<path d="M0 0 C0.66 0.33 1.32 0.66 2 1 C1.071875 1.4125 0.14375 1.825 -0.8125 2.25 C-3.88054681 3.93441786 -5.19040465 5.08454083 -7 8 C-5.68 8.33 -4.36 8.66 -3 9 C-5.54456151 11.96865509 -8.48994665 13.3619751 -12 15 C-12 16.32 -12 17.64 -12 19 C-10.68 19.33 -9.36 19.66 -8 20 C-8 20.66 -8 21.32 -8 22 C-10.64168921 21.64301497 -12.60890736 21.247692 -14.875 19.8125 C-16 18 -16 18 -15.6875 14.8125 C-15.460625 13.884375 -15.23375 12.95625 -15 12 C-16.32 12.99 -17.64 13.98 -19 15 C-19.66 14.67 -20.32 14.34 -21 14 C-17.17216361 10.59135031 -13.48135205 7.52794218 -9 5 C-7.96875 4.29875 -6.9375 3.5975 -5.875 2.875 C-3 1 -3 1 0 0 Z " fill="#E3E3E3" transform="translate(342,334)"/>
<path d="M0 0 C0.66 0 1.32 0 2 0 C2 1.32 2 2.64 2 4 C2.99 4.33 3.98 4.66 5 5 C1.30432687 9.07579951 -2.23621451 11.46878806 -7.1875 13.8125 C-7.81591797 14.12380859 -8.44433594 14.43511719 -9.09179688 14.75585938 C-13.70338255 17 -13.70338255 17 -16 17 C-16 16.01 -16 15.02 -16 14 C-15.360625 13.87625 -14.72125 13.7525 -14.0625 13.625 C-13.381875 13.41875 -12.70125 13.2125 -12 13 C-11.67 12.34 -11.34 11.68 -11 11 C-12.32 11.33 -13.64 11.66 -15 12 C-11.66463131 8.10873653 -7.73789501 5.82900259 -3 4 C-2.01 4 -1.02 4 0 4 C0 2.68 0 1.36 0 0 Z " fill="#EAEAEA" transform="translate(315,298)"/>
<path d="M0 0 C0.66 0.33 1.32 0.66 2 1 C1.071875 1.4125 0.14375 1.825 -0.8125 2.25 C-3.88054681 3.93441786 -5.19040465 5.08454083 -7 8 C-5.68 8.33 -4.36 8.66 -3 9 C-5.39509338 11.89932357 -7.31245243 12.50168276 -11 13 C-10.34 11.68 -9.68 10.36 -9 9 C-11.64 9.66 -14.28 10.32 -17 11 C-14.61656825 8.3656807 -12.06086579 6.77957313 -9 5 C-7.96875 4.29875 -6.9375 3.5975 -5.875 2.875 C-3 1 -3 1 0 0 Z " fill="#909090" transform="translate(342,334)"/>
<path d="M0 0 C2.475 0.495 2.475 0.495 5 1 C5.33 1.66 5.66 2.32 6 3 C4.68 3 3.36 3 2 3 C2 14.88 2 26.76 2 39 C2.66 39.33 3.32 39.66 4 40 C2.02 40.495 2.02 40.495 0 41 C0 27.47 0 13.94 0 0 Z " fill="#E8E8E8" transform="translate(244,304)"/>
<path d="M0 0 C-0.33 0.99 -0.66 1.98 -1 3 C-2.32 3 -3.64 3 -5 3 C-5 3.99 -5 4.98 -5 6 C-6.26418246 6.69965443 -7.53665402 7.38434763 -8.8125 8.0625 C-9.52019531 8.44535156 -10.22789062 8.82820313 -10.95703125 9.22265625 C-13 10 -13 10 -16 9 C-12.73655159 3.6598117 -6.38326495 0 0 0 Z " fill="#CCCCCC" transform="translate(304,309)"/>
<path d="M0 0 C-2.5538575 3.03270578 -5.35631794 4.1693133 -9 5.625 C-10.051875 6.05039062 -11.10375 6.47578125 -12.1875 6.9140625 C-14.10781513 7.65551751 -16.04714846 8.34904949 -18 9 C-18 8.01 -18 7.02 -18 6 C-17.360625 5.87625 -16.72125 5.7525 -16.0625 5.625 C-15.381875 5.41875 -14.70125 5.2125 -14 5 C-13.67 4.34 -13.34 3.68 -13 3 C-14.32 3.33 -15.64 3.66 -17 4 C-15.68 2.68 -14.36 1.36 -13 0 C-12.34 0.33 -11.68 0.66 -11 1 C-11.33 1.66 -11.66 2.32 -12 3 C-11.30132812 2.69964844 -10.60265625 2.39929688 -9.8828125 2.08984375 C-8.97273438 1.70957031 -8.06265625 1.32929688 -7.125 0.9375 C-6.22007812 0.55464844 -5.31515625 0.17179687 -4.3828125 -0.22265625 C-2 -1 -2 -1 0 0 Z " fill="#9D9D9D" transform="translate(317,306)"/>
<path d="M0 0 C-0.33 0.99 -0.66 1.98 -1 3 C-1.66 3 -2.32 3 -3 3 C-3 3.99 -3 4.98 -3 6 C-6.3 6.66 -9.6 7.32 -13 8 C-10.82230439 3.99304008 -9.71780353 2.2722703 -5.375 0.625 C-2 0 -2 0 0 0 Z " fill="#DBDBDB" transform="translate(347,335)"/>
<path d="M0 0 C6.76532673 1.78529455 11.65460165 4.49937851 17 9 C13.98968256 9.93423645 13.13349732 10.04449911 10 9 C10 8.34 10 7.68 10 7 C9.34 7 8.68 7 8 7 C8 6.34 8 5.68 8 5 C7.05125 4.731875 6.1025 4.46375 5.125 4.1875 C2 3 2 3 0 0 Z " fill="#575757" transform="translate(365,373)"/>
<path d="M0 0 C0 0.66 0 1.32 0 2 C-2.5 3.625 -2.5 3.625 -5 5 C-4.34 5.66 -3.68 6.32 -3 7 C-3.99 7.33 -4.98 7.66 -6 8 C-6 8.66 -6 9.32 -6 10 C-7.32 9.67 -8.64 9.34 -10 9 C-9.01 8.01 -8.02 7.02 -7 6 C-8.32 6.33 -9.64 6.66 -11 7 C-10 4 -10 4 -8.22265625 2.83203125 C-7.50980469 2.49558594 -6.79695313 2.15914063 -6.0625 1.8125 C-5.35222656 1.46832031 -4.64195312 1.12414062 -3.91015625 0.76953125 C-2 0 -2 0 0 0 Z " fill="#B5B5B5" transform="translate(354,329)"/>
<path d="M0 0 C0.66 0.33 1.32 0.66 2 1 C1.67 1.66 1.34 2.32 1 3 C2.093125 3.0825 3.18625 3.165 4.3125 3.25 C8 4 8 4 9.9375 6.0625 C10.288125 6.701875 10.63875 7.34125 11 8 C10.484375 7.649375 9.96875 7.29875 9.4375 6.9375 C6.04966491 5.6344865 3.5231219 6.35943238 0 7 C-0.99 7 -1.98 7 -3 7 C-2.34 6.01 -1.68 5.02 -1 4 C-2.32 4.33 -3.64 4.66 -5 5 C-3.35 3.35 -1.7 1.7 0 0 Z " fill="#B0B0B0" transform="translate(360,324)"/>
<path d="M0 0 C0.66 0.33 1.32 0.66 2 1 C-2.87776102 5.84639278 -7.34969294 8.28087301 -14 10 C-11.52041164 5.77011398 -8.43610322 4.79000656 -4 3 C-1.66121124 1.43671635 -1.66121124 1.43671635 0 0 Z " fill="#696969" transform="translate(387,263)"/>
<path d="M0 0 C3.96 0.33 7.92 0.66 12 1 C11.67 1.99 11.34 2.98 11 4 C9.02 4.33 7.04 4.66 5 5 C5 4.34 5 3.68 5 3 C2.525 2.01 2.525 2.01 0 1 C0 0.67 0 0.34 0 0 Z " fill="#606060" transform="translate(391,388)"/>
<path d="M0 0 C0 0.66 0 1.32 0 2 C-1.95330868 3.03041513 -3.91281528 4.0490893 -5.875 5.0625 C-6.96554687 5.63097656 -8.05609375 6.19945312 -9.1796875 6.78515625 C-10.11039062 7.18605469 -11.04109375 7.58695312 -12 8 C-12.66 7.67 -13.32 7.34 -14 7 C-11.93243723 4.2027092 -10.85559629 3.97307727 -7.3125 3.3125 C-6.219375 3.209375 -5.12625 3.10625 -4 3 C-4 2.34 -4 1.68 -4 1 C-2 0 -2 0 0 0 Z " fill="#4A4A4A" transform="translate(276,329)"/>
<path d="M0 0 C0.66 0 1.32 0 2 0 C2 1.32 2 2.64 2 4 C2.99 4.33 3.98 4.66 5 5 C3.02 5.99 1.04 6.98 -1 8 C-1.33 7.34 -1.66 6.68 -2 6 C-2.99 5.67 -3.98 5.34 -5 5 C-3.35 4.67 -1.7 4.34 0 4 C0 2.68 0 1.36 0 0 Z " fill="#DBDBDB" transform="translate(315,298)"/>
<path d="M0 0 C0.66 0.33 1.32 0.66 2 1 C1.67 2.65 1.34 4.3 1 6 C2.32 6.33 3.64 6.66 5 7 C5 7.66 5 8.32 5 9 C2.25851328 8.62952882 0.41406801 8.31412056 -1.8125 6.625 C-3 5 -3 5 -3 2 C-2.01 1.34 -1.02 0.68 0 0 Z " fill="#7E7E7E" transform="translate(329,347)"/>
<path d="M0 0 C0.66 0.33 1.32 0.66 2 1 C0.61341021 2.15700194 -0.78472441 3.30017623 -2.1875 4.4375 C-2.96480469 5.07558594 -3.74210937 5.71367187 -4.54296875 6.37109375 C-7.10825071 8.07176557 -8.97328271 8.61830031 -12 9 C-11.67 8.34 -11.34 7.68 -11 7 C-10.34 7 -9.68 7 -9 7 C-9 6.34 -9 5.68 -9 5 C-7.54735962 4.1361871 -6.0876837 3.28419546 -4.625 2.4375 C-3.81289063 1.96183594 -3.00078125 1.48617188 -2.1640625 0.99609375 C-1.44992187 0.66738281 -0.73578125 0.33867187 0 0 Z " fill="#656565" transform="translate(304,355)"/>
<path d="M0 0 C0.66 0.33 1.32 0.66 2 1 C-0.33285443 4.49928164 -1.20795069 4.6329098 -5.125 5.6875 C-6.49011719 6.06455078 -6.49011719 6.06455078 -7.8828125 6.44921875 C-8.58148438 6.63097656 -9.28015625 6.81273437 -10 7 C-7.01767477 3.67356033 -4.13629913 1.70847138 0 0 Z " fill="#7C7C7C" transform="translate(332,295)"/>
<path d="M0 0 C0.66 0.33 1.32 0.66 2 1 C0.6875 2.5 0.6875 2.5 -1 4 C-1.99 4 -2.98 4 -4 4 C-4.33 4.99 -4.66 5.98 -5 7 C-6.32 6.67 -7.64 6.34 -9 6 C-5.25 3 -5.25 3 -3 3 C-3 2.34 -3 1.68 -3 1 C-2.01 0.67 -1.02 0.34 0 0 Z " fill="#8F8F8F" transform="translate(343,288)"/>
<path d="M0 0 C-0.7109375 1.921875 -0.7109375 1.921875 -2 4 C-4.1640625 4.828125 -4.1640625 4.828125 -6.625 5.25 C-7.85089844 5.47429687 -7.85089844 5.47429687 -9.1015625 5.703125 C-9.72804687 5.80109375 -10.35453125 5.8990625 -11 6 C-8.05970059 2.8666063 -4.47443154 0 0 0 Z " fill="#A9A9A9" transform="translate(263,381)"/>
<path d="M0 0 C1.98 0.66 3.96 1.32 6 2 C6 2.66 6 3.32 6 4 C8.475 4.99 8.475 4.99 11 6 C8.50907189 7.24546405 7.58919267 6.7767578 5 6 C5 5.34 5 4.68 5 4 C4.34 4 3.68 4 3 4 C3 3.34 3 2.68 3 2 C2.01 1.67 1.02 1.34 0 1 C0 0.67 0 0.34 0 0 Z " fill="#6F6F6F" transform="translate(416,268)"/>
<path d="M0 0 C6.75 1.625 6.75 1.625 9 5 C6.69 4.67 4.38 4.34 2 4 C2 3.34 2 2.68 2 2 C1.34 2 0.68 2 0 2 C0 1.34 0 0.68 0 0 Z " fill="#9E9E9E" transform="translate(373,378)"/>
<path d="M0 0 C0.33 0.99 0.66 1.98 1 3 C-3.625 5.125 -3.625 5.125 -7 4 C-4.83989616 0.75984424 -3.8842653 0 0 0 Z " fill="#EBEBEB" transform="translate(295,314)"/>
<path d="M0 0 C0.66 0.33 1.32 0.66 2 1 C-2.296875 5.00390625 -2.296875 5.00390625 -4 6 C-6.203125 5.65234375 -6.203125 5.65234375 -8 5 C-6.71475739 4.13619741 -5.42157581 3.28419631 -4.125 2.4375 C-3.04605469 1.72400391 -3.04605469 1.72400391 -1.9453125 0.99609375 C-1.30335938 0.66738281 -0.66140625 0.33867187 0 0 Z " fill="#B2B2B2" transform="translate(432,372)"/>
<path d="M0 0 C0.8971875 0.309375 0.8971875 0.309375 1.8125 0.625 C0.8225 0.955 -0.1675 1.285 -1.1875 1.625 C-2.1775 3.11 -2.1775 3.11 -3.1875 4.625 C-6.3125 5.3125 -6.3125 5.3125 -9.1875 5.625 C-3.21691176 -0.55147059 -3.21691176 -0.55147059 0 0 Z " fill="#898989" transform="translate(243.1875,257.375)"/>
<path d="M0 0 C0 0.99 0 1.98 0 3 C-1.98 3.66 -3.96 4.32 -6 5 C-5.625 3.0625 -5.625 3.0625 -5 1 C-3 0 -3 0 0 0 Z " fill="#F0F0F0" transform="translate(287,319)"/>
<path d="M0 0 C0 0.66 0 1.32 0 2 C-0.66 2 -1.32 2 -2 2 C-2 2.66 -2 3.32 -2 4 C-3.98 4.33 -5.96 4.66 -8 5 C-8 4.34 -8 3.68 -8 3 C-2.25 0 -2.25 0 0 0 Z " fill="#707070" transform="translate(234,263)"/>
<path d="M0 0 C2.475 0.495 2.475 0.495 5 1 C5 1.66 5 2.32 5 3 C5.639375 3.12375 6.27875 3.2475 6.9375 3.375 C7.618125 3.58125 8.29875 3.7875 9 4 C9.33 4.66 9.66 5.32 10 6 C5.56909529 4.79157144 3.01887244 3.48331435 0 0 Z " fill="#666666" transform="translate(346,362)"/>
<path d="M0 0 C0.66 0.33 1.32 0.66 2 1 C1.34 1.66 0.68 2.32 0 3 C0.33 3.99 0.66 4.98 1 6 C-0.65 6 -2.3 6 -4 6 C-2.25 1.125 -2.25 1.125 0 0 Z " fill="#DADADA" transform="translate(364,322)"/>
<path d="M0 0 C3.37462715 0.54723683 5.08235 1.0549 8 3 C8 3.66 8 4.32 8 5 C4.62496331 3.8141763 2.35277269 2.72426311 0 0 Z " fill="#464646" transform="translate(254,308)"/>
<path d="M0 0 C3.375 0.25 3.375 0.25 7 1 C8.4375 3.0625 8.4375 3.0625 9 5 C5.22454612 3.90931332 2.52956528 3.0916909 0 0 Z " fill="#989898" transform="translate(407,263)"/>
<path d="M0 0 C2.875 0.25 2.875 0.25 6 1 C7.375 3.0625 7.375 3.0625 8 5 C6.35 4.67 4.7 4.34 3 4 C3 3.34 3 2.68 3 2 C2.01 2 1.02 2 0 2 C0 1.34 0 0.68 0 0 Z " fill="#6A6A6A" transform="translate(230,384)"/>
<path d="M0 0 C-0.33 0.99 -0.66 1.98 -1 3 C-2.32 2.67 -3.64 2.34 -5 2 C-2 0 -2 0 0 0 Z M-6 3 C-5.67 3.99 -5.34 4.98 -5 6 C-5.99 6.33 -6.98 6.66 -8 7 C-7.34 5.68 -6.68 4.36 -6 3 Z " fill="#F3F3F3" transform="translate(304,309)"/>
<path d="M0 0 C2.4375 0.375 2.4375 0.375 5 1 C5.33 1.66 5.66 2.32 6 3 C4.68 3 3.36 3 2 3 C1.34 4.32 0.68 5.64 0 7 C0 4.69 0 2.38 0 0 Z " fill="#D0D0D0" transform="translate(244,304)"/>
<path d="M0 0 C2.875 0.25 2.875 0.25 6 1 C7.375 3.0625 7.375 3.0625 8 5 C6.35 4.67 4.7 4.34 3 4 C3 3.34 3 2.68 3 2 C2.01 2 1.02 2 0 2 C0 1.34 0 0.68 0 0 Z " fill="#999999" transform="translate(288,283)"/>
</svg>
